<svg width="196" height="196" viewBox="0 0 196 196" fill="none" xmlns="http://www.w3.org/2000/svg">
<path d="M196 98C196 72.0088 185.675 47.0821 167.296 28.7035C148.918 10.325 123.991 1.96228e-06 98 0C72.0088 -1.96228e-06 47.0821 10.325 28.7035 28.7035C10.325 47.0821 3.92457e-06 72.0088 0 98L98 98H196Z" fill="#088868"/>
<g clip-path="url(#clip0_765_2504)">
<rect x="8" y="8" width="180" height="180" rx="90" fill="white"/>
<path d="M188 98C188 48.2944 147.706 8 98 8C48.2944 8 8 48.2944 8 98C8 147.706 48.2944 188 98 188C147.706 188 188 147.706 188 98Z" fill="white"/>
<g clip-path="url(#clip1_765_2504)">
<path d="M45.9536 75.0829C45.5248 74.6868 45.0022 74.3847 44.3938 74.1724C44.3121 74.1438 44.1896 74.1029 44.0304 74.0539C43.867 74.0009 43.6996 73.9519 43.5241 73.9029C43.3526 73.8539 43.2096 73.8212 43.1076 73.8049L41.5764 78.2311L43.3648 78.8517L44.157 76.5651C44.3529 76.6468 44.5285 76.7611 44.6755 76.9122C44.847 77.0919 44.9818 77.3001 45.0716 77.5328C45.1614 77.7656 45.2104 78.0187 45.2145 78.2964C45.2145 78.5741 45.1737 78.8517 45.0757 79.1294C44.9409 79.5255 44.7368 79.8684 44.4714 80.1624C44.2019 80.4564 43.8997 80.6851 43.5567 80.8484C43.2137 81.0117 42.8422 81.1057 42.4461 81.1261C42.0459 81.1465 41.6458 81.0893 41.2415 80.9505C40.8373 80.8117 40.4861 80.6157 40.1881 80.3584C39.89 80.1053 39.6572 79.8113 39.4857 79.4765C39.3143 79.1416 39.2163 78.7864 39.1836 78.4067C39.155 78.031 39.2081 77.6431 39.3428 77.2511C39.449 76.9449 39.5919 76.6754 39.7675 76.4345C39.9472 76.1935 40.1472 75.9812 40.3718 75.7934C40.5964 75.6056 40.8577 75.4381 41.1517 75.2871L40.1636 73.3925C39.7675 73.5476 39.3918 73.7722 39.0243 74.0662C38.6609 74.3602 38.3302 74.7195 38.0362 75.1319C37.7422 75.5484 37.5054 76.0139 37.3257 76.5325C37.0726 77.2674 36.9582 77.9902 36.9827 78.6966C37.0072 79.403 37.1624 80.0604 37.4441 80.6728C37.7259 81.2812 38.1179 81.8121 38.6201 82.2612C39.1223 82.7104 39.7226 83.0574 40.4208 83.2983C41.119 83.5393 41.8091 83.6495 42.4828 83.6209C43.1606 83.5964 43.7935 83.4372 44.3856 83.1514C44.9777 82.8655 45.5003 82.4572 45.9536 81.9305C46.4068 81.4037 46.762 80.7668 47.0234 80.0114C47.2398 79.3825 47.3378 78.766 47.3214 78.1576C47.3051 77.5492 47.1745 76.9816 46.9458 76.463C46.713 75.9404 46.3823 75.4831 45.9536 75.087V75.0829Z" fill="#23262D"/>
<path d="M51.8458 69.542L53.2218 67.1452L48.7752 67.1697C48.7793 67.1084 48.7874 67.0472 48.7874 66.9819C48.7956 66.3939 48.6608 65.8549 48.3709 65.3527C48.0851 64.8504 47.6686 64.4421 47.1296 64.1318C46.6029 63.8296 46.0598 63.6867 45.4963 63.7071C44.9369 63.7194 44.4061 63.8868 43.9121 64.1971C43.418 64.5074 43.0097 64.9402 42.6953 65.4915L40.4658 69.3787L49.11 74.3357L50.2533 72.335L47.2154 70.5955L47.8319 69.5135L51.8498 69.5461L51.8458 69.542ZM46.5825 67.9659L45.6066 69.6686L43.3567 68.3824L44.2265 66.8634C44.3775 66.6021 44.5531 66.402 44.7491 66.2673C44.9451 66.1325 45.1574 66.0672 45.382 66.0672C45.6107 66.0631 45.8312 66.1285 46.0557 66.255C46.2762 66.3816 46.4477 66.5409 46.5743 66.7287C46.6968 66.9124 46.7621 67.1125 46.7621 67.3289C46.7662 67.5413 46.7091 67.7536 46.5825 67.97V67.9659Z" fill="#23262D"/>
<path d="M53.9606 62.9926L52.4049 61.7063L54.9202 58.6562L53.4053 57.4067L50.8901 60.4569L49.4609 59.2809L52.3886 55.7326L50.7962 54.4219L46.374 59.7791L54.0586 66.1162L58.5706 60.6488L56.9781 59.3381L53.9606 62.9926Z" fill="#23262D"/>
<path d="M60.1831 56.3533L58.852 54.8343L61.8246 52.2251L60.5302 50.747L57.5576 53.3562L56.3367 51.9638L59.7911 48.9341L58.4314 47.3824L53.209 51.9638L59.7789 59.4524L65.1075 54.7772L63.7478 53.2255L60.1831 56.3533Z" fill="#23262D"/>
<path d="M67.0066 41.7884L68.2684 43.9035C68.4684 44.2383 68.6563 44.5445 68.8278 44.8304C69.0033 45.1121 69.1667 45.3734 69.3259 45.6103C69.4852 45.8471 69.6444 46.0798 69.8036 46.3003C69.967 46.5249 70.1303 46.7495 70.3018 46.9822C70.3426 47.0353 70.3835 47.0925 70.4284 47.1455L63.1684 44.079L61.3105 45.1856L66.4146 53.7399L68.4317 52.5354L66.7249 49.6771C66.6024 49.473 66.4922 49.2892 66.386 49.1259C66.2839 48.9626 66.1737 48.7952 66.0634 48.6277C65.9532 48.4603 65.8225 48.2807 65.6796 48.0806C65.5326 47.8805 65.3652 47.6519 65.1733 47.3987C65.1488 47.366 65.1161 47.3211 65.0916 47.2885L72.2454 50.2651L74.1278 49.1422L69.0237 40.5879L67.0066 41.7924V41.7884Z" fill="#23262D"/>
<path d="M85.6755 34.8959L83.393 35.5002L84.9283 41.3066C85.0222 41.6537 85.0222 41.9926 84.9283 42.3151C84.8384 42.6377 84.6792 42.9154 84.4505 43.1481C84.2219 43.3809 83.936 43.5442 83.5849 43.634C83.2541 43.7198 82.9356 43.7198 82.6253 43.6299C82.315 43.5401 82.0496 43.3768 81.8168 43.1359C81.5882 42.899 81.4249 42.605 81.335 42.2539L79.7997 36.4476L77.4355 37.0723L79.0035 43.0011C79.1995 43.7361 79.5466 44.3404 80.0488 44.8141C80.551 45.2877 81.1594 45.6062 81.8699 45.7695C82.5804 45.9329 83.3317 45.9043 84.132 45.692C84.9201 45.4837 85.5857 45.1326 86.1206 44.6426C86.6595 44.1526 87.027 43.5769 87.2312 42.9154C87.4354 42.2539 87.4394 41.5557 87.2434 40.8207L85.6755 34.8918V34.8959Z" fill="#23262D"/>
<path d="M96.1931 33.8465L96.3401 36.3046C96.3646 36.6925 96.3891 37.0518 96.4136 37.3826C96.4381 37.7133 96.4667 38.0196 96.4994 38.3054C96.532 38.5871 96.5647 38.8648 96.6055 39.1384C96.6464 39.4119 96.6872 39.6896 96.7362 39.9713C96.7484 40.0367 96.7607 40.1061 96.7729 40.1714L91.7342 34.116L89.5742 34.2467L90.1785 44.1893L92.5223 44.0464L92.3181 40.7227C92.3018 40.4858 92.2896 40.2694 92.2732 40.0775C92.2569 39.8856 92.2365 39.6855 92.2161 39.4895C92.1956 39.2894 92.163 39.069 92.1262 38.824C92.0895 38.579 92.0405 38.2972 91.9915 37.9828C91.9833 37.9379 91.9752 37.893 91.967 37.844L96.9526 43.7728L99.1412 43.6381L98.5369 33.6954L96.1931 33.8383V33.8465Z" fill="#23262D"/>
<path d="M101.901 35.9453L103.567 36.1249L102.93 41.9843L101.26 41.8006L101.044 43.8259L106.801 44.4506L107.022 42.4294L105.335 42.2457L105.972 36.3863L107.659 36.57L107.875 34.5488L102.118 33.9241L101.901 35.9453Z" fill="#23262D"/>
<path d="M117.471 36.8151L114.34 41.2249C114.103 41.5516 113.903 41.8333 113.739 42.0702C113.576 42.307 113.425 42.5356 113.286 42.7561C113.278 42.7684 113.27 42.7806 113.266 42.7929C113.266 42.6459 113.266 42.503 113.258 42.356C113.249 42.1559 113.233 41.9395 113.213 41.7108C113.192 41.4781 113.168 41.2045 113.135 40.8942L112.629 35.488L110.199 34.8184L111.404 45.4796L113.351 46.0145L119.86 37.4725L117.471 36.8151Z" fill="#23262D"/>
<path d="M125.458 46.5126L126.291 44.7364L122.714 43.0501L123.498 41.3759L127.659 43.3318L128.537 41.4658L122.253 38.5095L118.015 47.5253L124.425 50.5428L125.303 48.6727L121.016 46.6555L121.877 44.8263L125.458 46.5126Z" fill="#23262D"/>
<path d="M136.45 47.117C136.184 46.5944 135.788 46.1493 135.27 45.79L131.595 43.2257L125.895 51.3921L127.785 52.711L129.786 49.8446L130.807 50.5551L130.423 54.5526L132.685 56.1328L133.056 51.6984C133.118 51.7066 133.179 51.727 133.24 51.7311C133.828 51.7923 134.379 51.6984 134.906 51.4616C135.429 51.2207 135.874 50.845 136.229 50.3305C136.576 49.8324 136.768 49.3056 136.801 48.7421C136.833 48.1827 136.715 47.6397 136.45 47.1211V47.117ZM134.212 49.0729C134.065 49.2852 133.889 49.4404 133.698 49.5506C133.502 49.6568 133.293 49.7017 133.081 49.6854C132.869 49.6731 132.66 49.5874 132.456 49.4526L130.843 48.3256L132.326 46.2024L133.759 47.2068C134.012 47.3824 134.188 47.5743 134.31 47.7785C134.424 47.9827 134.473 48.2032 134.457 48.4277C134.441 48.6523 134.355 48.8687 134.208 49.077L134.212 49.0729Z" fill="#23262D"/>
<path d="M141.579 58.8849C141.697 58.5296 141.73 58.154 141.685 57.762C141.636 57.37 141.522 56.9658 141.342 56.5493C141.162 56.1328 140.922 55.704 140.619 55.2631C140.485 55.0752 140.362 54.8874 140.256 54.6996C140.15 54.5117 140.072 54.3239 140.019 54.1483C139.966 53.9728 139.946 53.8094 139.958 53.6624C139.97 53.5154 140.031 53.3848 140.146 53.2664C140.272 53.1398 140.419 53.0663 140.591 53.0581C140.762 53.0459 140.946 53.0867 141.142 53.1806C141.338 53.2704 141.538 53.4174 141.738 53.6175C141.934 53.8094 142.098 54.0299 142.224 54.2708C142.351 54.5158 142.441 54.7772 142.494 55.0548C142.547 55.3325 142.559 55.6305 142.526 55.945L144.601 55.9654C144.682 55.5407 144.694 55.1201 144.633 54.7037C144.572 54.2872 144.421 53.8625 144.184 53.4338C143.947 53.005 143.592 52.564 143.126 52.1067C142.775 51.7597 142.383 51.482 141.959 51.2656C141.53 51.0533 141.097 50.9185 140.66 50.8695C140.223 50.8205 139.803 50.8573 139.394 50.9798C138.986 51.1063 138.627 51.3268 138.312 51.6453C138.018 51.9434 137.802 52.2578 137.663 52.5926C137.52 52.9275 137.455 53.2786 137.467 53.6543C137.479 54.0299 137.565 54.426 137.728 54.8384C137.892 55.2549 138.129 55.6959 138.435 56.1695C138.549 56.3369 138.655 56.5044 138.757 56.6758C138.855 56.8473 138.941 57.0148 139.015 57.1863C139.088 57.3577 139.137 57.517 139.166 57.664C139.194 57.811 139.194 57.9498 139.166 58.0805C139.137 58.2111 139.072 58.3296 138.974 58.4275C138.839 58.5623 138.688 58.6358 138.517 58.648C138.345 58.6603 138.161 58.6154 137.965 58.5174C137.769 58.4194 137.581 58.2806 137.398 58.1009C137.034 57.7416 136.757 57.3169 136.565 56.8269C136.377 56.3369 136.336 55.6959 136.442 54.9119L134.229 55.0711C134.172 55.5897 134.188 56.096 134.27 56.5942C134.352 57.0923 134.527 57.5823 134.793 58.0641C135.058 58.546 135.426 59.0155 135.891 59.4729C136.434 60.0037 136.998 60.3834 137.59 60.6162C138.182 60.8448 138.766 60.9061 139.341 60.7999C139.917 60.6937 140.448 60.3957 140.934 59.9016C141.248 59.5831 141.461 59.2442 141.579 58.889V58.8849Z" fill="#23262D"/>
<path d="M148.344 61.6083L149.365 62.9599L150.99 61.7349L147.503 57.1086L145.878 58.3336L146.89 59.677L142.187 63.2212L141.174 61.8819L139.549 63.1069L143.036 67.7332L144.661 66.5082L143.64 65.1526L148.344 61.6083Z" fill="#23262D"/>
<path d="M154.617 72.3349L156.499 71.3223L152.51 63.9194L150.631 64.9321L152.032 67.5372L145.144 71.2488L146.291 73.3762L153.179 69.6686L154.617 72.3349Z" fill="#23262D"/>
<path d="M160.443 82.4531L159.602 79.9297L155.633 78.9416L158.148 75.5688L157.279 72.9637L153.257 78.4434L149.071 79.8399L149.839 82.1469L154.049 80.7464L160.443 82.4531Z" fill="#23262D"/>
<path d="M43.8132 114.29C43.6499 114.2 43.4988 114.086 43.36 113.955C43.2211 113.82 43.0986 113.669 42.9925 113.498C42.8863 113.326 42.8128 113.139 42.7597 112.943C42.6822 112.636 42.6577 112.346 42.6903 112.069C42.723 111.791 42.8046 111.542 42.9353 111.317C43.066 111.093 43.2456 110.897 43.4702 110.734C43.6948 110.57 43.9643 110.448 44.2746 110.366C44.5808 110.288 44.8708 110.268 45.1484 110.305C45.4261 110.342 45.6752 110.427 45.8997 110.554C46.1202 110.68 46.3121 110.852 46.4714 111.056C46.6306 111.264 46.745 111.501 46.8144 111.771C46.8634 111.971 46.8838 112.167 46.8715 112.359C46.8593 112.551 46.8185 112.743 46.749 112.93C46.6837 113.118 46.5898 113.306 46.4795 113.486L47.6759 114.114C47.8515 113.878 47.9903 113.612 48.0883 113.318C48.1863 113.024 48.2353 112.718 48.2435 112.395C48.2517 112.073 48.2149 111.754 48.1332 111.444C48.0108 110.966 47.8107 110.542 47.5371 110.174C47.2635 109.807 46.9369 109.509 46.5571 109.28C46.1774 109.051 45.7609 108.908 45.3117 108.843C44.8626 108.778 44.3971 108.81 43.9194 108.933C43.4294 109.059 42.9966 109.255 42.625 109.525C42.2534 109.794 41.9553 110.113 41.7267 110.484C41.5021 110.856 41.3551 111.264 41.2939 111.709C41.2326 112.155 41.2612 112.612 41.3837 113.094C41.4653 113.412 41.5838 113.714 41.743 114.004C41.9023 114.294 42.0778 114.547 42.282 114.768C42.4862 114.988 42.6862 115.148 42.8945 115.262L43.8091 114.29H43.8132Z" fill="#23262D"/>
<path d="M44.3928 118.026L45.8382 117.463L46.81 119.958L47.9574 119.513L46.9897 117.018L48.3086 116.503L49.4437 119.427L50.6319 118.965L48.9782 114.723L42.6982 117.169L44.3724 121.477L45.5565 121.015L44.3928 118.026Z" fill="#23262D"/>
<path d="M53.3394 124.176L51.7265 125.058C51.4856 125.192 51.261 125.315 51.061 125.433C50.8568 125.552 50.669 125.666 50.4893 125.772C50.3096 125.882 50.1381 125.989 49.9748 126.099C49.8115 126.205 49.6522 126.315 49.493 126.421C49.4522 126.45 49.4113 126.479 49.3705 126.507L51.7714 121.309L51.1508 120.178L45.2383 123.416L45.9202 124.657L48.0475 123.494C48.1619 123.432 48.268 123.371 48.366 123.314C48.464 123.257 48.5702 123.192 48.6804 123.126C48.7907 123.061 48.9173 122.975 49.0602 122.881C49.2031 122.783 49.3746 122.669 49.5706 122.538C49.6482 122.485 49.7339 122.428 49.8237 122.367L47.48 127.507L48.1088 128.655L54.0213 125.417L53.3435 124.176H53.3394Z" fill="#23262D"/>
<path d="M56.6961 131.374L57.7455 130.611L54.5483 126.217L53.4989 126.985L54.6545 128.573L50.2568 131.774L51.1061 132.942L55.5038 129.741L56.6961 131.374Z" fill="#23262D"/>
<path d="M60.979 134.571C60.881 134.196 60.6932 133.853 60.4115 133.546L58.3821 131.362L53.4414 135.947L54.3928 136.968L56.1608 135.323L56.8876 136.107L56.0383 138.748L57.1735 139.982L58.0677 137.062C58.1167 137.087 58.1739 137.107 58.2229 137.123C58.5985 137.242 58.9701 137.262 59.3457 137.185C59.7214 137.103 60.0603 136.923 60.3584 136.65C60.6565 136.372 60.8565 136.049 60.9586 135.686C61.0648 135.323 61.0689 134.955 60.9749 134.571H60.979ZM59.6234 135.2C59.5744 135.359 59.4805 135.502 59.3376 135.637C59.2028 135.755 59.064 135.841 58.9129 135.89C58.7578 135.935 58.6067 135.939 58.4597 135.898C58.3086 135.853 58.1739 135.772 58.0554 135.641L57.0224 134.526L58.4148 133.236L59.3253 134.216C59.4682 134.371 59.5622 134.535 59.6152 134.706C59.6642 134.882 59.6683 135.045 59.6234 135.2Z" fill="#23262D"/>
<path d="M64.2943 137.25L57.9326 140.712L59.031 141.631L60.3499 140.888L62.3343 142.55L61.8321 143.975L62.9672 144.926L65.2865 138.075L64.2984 137.246L64.2943 137.25ZM63.4654 139.434C63.396 139.61 63.3266 139.773 63.2694 139.933C63.2041 140.088 63.1591 140.223 63.1224 140.321L62.7427 141.386L61.4279 140.284L62.3833 139.745C62.5222 139.667 62.6569 139.586 62.7998 139.504C62.9468 139.426 63.0897 139.341 63.2367 139.247C63.3796 139.157 63.5144 139.063 63.6532 138.973C63.592 139.12 63.5307 139.275 63.4654 139.434Z" fill="#23262D"/>
<path d="M67.933 140.149L64.2295 145.784L67.9901 148.254L68.7047 147.164L66.1527 145.49L69.1375 140.945L67.933 140.149Z" fill="#23262D"/>
<path d="M76.9361 145.269L71.832 150.41L73.1509 150.978L74.2003 149.888L76.5726 150.912L76.4992 152.419L77.8589 153.011L78.1202 145.78L76.9361 145.269ZM76.7727 147.597C76.7564 147.785 76.736 147.964 76.7237 148.132C76.7115 148.303 76.6992 148.438 76.6951 148.548L76.6421 149.679L75.0619 148.997L75.8254 148.205C75.9316 148.091 76.0418 147.977 76.1562 147.858C76.2705 147.74 76.3848 147.617 76.4951 147.483C76.6094 147.356 76.7156 147.229 76.8217 147.103C76.8095 147.262 76.7891 147.429 76.7768 147.597H76.7727Z" fill="#23262D"/>
<path d="M82.1263 148.757C82.2407 148.679 82.3795 148.638 82.5428 148.626C82.7062 148.614 82.8899 148.642 83.0941 148.703C83.2778 148.757 83.4493 148.842 83.6085 148.953C83.7678 149.063 83.9025 149.198 84.021 149.361C84.1353 149.524 84.2333 149.708 84.3109 149.92L85.4378 149.328C85.3603 149.042 85.2378 148.785 85.0703 148.552C84.9029 148.32 84.6824 148.115 84.4129 147.94C84.1435 147.764 83.8127 147.621 83.4166 147.507C83.0981 147.413 82.7797 147.368 82.4653 147.376C82.1508 147.385 81.8609 147.442 81.5914 147.548C81.322 147.654 81.0892 147.809 80.8973 148.009C80.7054 148.209 80.5666 148.45 80.4849 148.724C80.4032 148.993 80.3746 149.251 80.3951 149.492C80.4155 149.732 80.4849 149.961 80.6074 150.182C80.7299 150.402 80.9014 150.606 81.13 150.798C81.3587 150.99 81.6282 151.174 81.9508 151.358C82.1018 151.431 82.2407 151.505 82.3673 151.586C82.4897 151.668 82.6 151.75 82.6939 151.835C82.7878 151.921 82.8695 152.007 82.9267 152.097C82.9879 152.186 83.0287 152.276 83.0451 152.374C83.0614 152.472 83.0573 152.566 83.0287 152.664C82.9879 152.799 82.9103 152.901 82.796 152.97C82.6817 153.04 82.5428 153.081 82.3754 153.093C82.208 153.105 82.0283 153.081 81.8364 153.024C81.4853 152.921 81.1831 152.75 80.93 152.509C80.6768 152.268 80.4604 151.897 80.2807 151.39L79.1211 152.121C79.2436 152.452 79.4069 152.75 79.6029 153.015C79.803 153.281 80.0521 153.514 80.3501 153.71C80.6482 153.906 80.9994 154.061 81.3995 154.179C81.8936 154.326 82.3468 154.371 82.7633 154.318C83.1798 154.265 83.5391 154.114 83.8413 153.869C84.1435 153.624 84.3558 153.281 84.4864 152.844C84.564 152.578 84.5844 152.325 84.5395 152.08C84.4987 151.835 84.4048 151.607 84.2537 151.394C84.1067 151.178 83.9148 150.978 83.6739 150.786C83.4371 150.594 83.1594 150.414 82.8368 150.247C82.6694 150.157 82.5183 150.067 82.3877 149.973C82.2529 149.879 82.1468 149.786 82.061 149.692C81.9753 149.598 81.9181 149.496 81.8895 149.394C81.8609 149.291 81.8609 149.185 81.8936 149.075C81.9344 148.94 82.012 148.834 82.1223 148.757H82.1263Z" fill="#23262D"/>
<path d="M86.5401 149.765L87.6507 149.969L86.879 154.154L85.7724 153.95L85.5479 155.171L89.186 155.841L89.4106 154.616L88.2999 154.416L89.0717 150.226L90.1782 150.431L90.4028 149.21L86.7647 148.54L86.5401 149.765Z" fill="#23262D"/>
<path d="M94.8982 149.647L93.6119 149.549L90.4883 156.086L91.9215 156.188L92.5544 154.82L95.1309 155.004L95.5596 156.449L97.0378 156.556L94.8941 149.651L94.8982 149.647ZM93.0689 153.697L93.5303 152.693C93.5915 152.55 93.6528 152.403 93.7222 152.252C93.7916 152.105 93.861 151.95 93.9223 151.79C93.9835 151.631 94.0407 151.48 94.1019 151.325C94.1387 151.48 94.1795 151.639 94.2203 151.811C94.2612 151.995 94.3061 152.17 94.3469 152.329C94.3918 152.493 94.4286 152.632 94.4572 152.738L94.7797 153.82L93.0648 153.701L93.0689 153.697Z" fill="#23262D"/>
<path d="M102.767 149.536L102.877 151.374C102.894 151.647 102.914 151.905 102.935 152.137C102.955 152.37 102.975 152.591 103 152.799C103.024 153.007 103.049 153.207 103.073 153.403C103.102 153.599 103.131 153.787 103.163 153.975C103.171 154.024 103.18 154.077 103.192 154.126L99.5128 149.737L98.2266 149.814L98.6349 156.543L100.048 156.458L99.9007 154.036C99.8925 153.91 99.8843 153.787 99.8721 153.673C99.8639 153.558 99.8517 153.436 99.8354 153.309C99.819 153.183 99.7986 153.032 99.7741 152.86C99.7455 152.689 99.7169 152.485 99.6802 152.252C99.6639 152.162 99.6475 152.056 99.6312 151.954L103.286 156.266L104.592 156.188L104.184 149.459L102.771 149.545L102.767 149.536Z" fill="#23262D"/>
<path d="M113.922 147.307L112.562 147.666L113.599 151.607C113.669 151.868 113.669 152.117 113.599 152.358C113.534 152.599 113.411 152.807 113.236 152.987C113.06 153.166 112.844 153.289 112.591 153.354C112.342 153.42 112.101 153.415 111.868 153.346C111.635 153.277 111.431 153.15 111.255 152.975C111.084 152.799 110.961 152.578 110.892 152.317L109.855 148.377L108.45 148.748L109.508 152.77C109.638 153.26 109.871 153.669 110.206 153.995C110.545 154.322 110.949 154.538 111.419 154.653C111.888 154.763 112.39 154.751 112.917 154.612C113.44 154.473 113.877 154.24 114.236 153.914C114.595 153.587 114.84 153.195 114.971 152.746C115.102 152.297 115.102 151.827 114.971 151.337L113.914 147.315L113.922 147.307Z" fill="#23262D"/>
<path d="M119.487 145.098L120.202 146.792C120.308 147.046 120.41 147.282 120.508 147.495C120.606 147.707 120.7 147.911 120.79 148.099C120.88 148.287 120.97 148.471 121.059 148.642C121.149 148.818 121.243 148.985 121.333 149.153C121.358 149.197 121.382 149.242 121.407 149.287L116.482 146.364L115.294 146.862L117.907 153.072L119.214 152.525L118.275 150.288C118.226 150.169 118.177 150.059 118.128 149.953C118.079 149.847 118.03 149.736 117.973 149.622C117.915 149.508 117.85 149.373 117.768 149.218C117.687 149.063 117.589 148.883 117.478 148.675C117.434 148.593 117.385 148.503 117.336 148.409L122.211 151.268L123.42 150.761L120.806 144.551L119.504 145.098H119.487Z" fill="#23262D"/>
<path d="M126.939 147.385L124.833 143.689L125.812 143.13L125.196 142.052L121.982 143.885L122.599 144.963L123.579 144.404L125.686 148.099L124.706 148.659L125.322 149.736L128.536 147.907L127.919 146.825L126.939 147.385Z" fill="#23262D"/>
<path d="M129.903 138.761L130.981 142.493C131.051 142.75 131.116 142.979 131.173 143.171C131.23 143.363 131.292 143.542 131.353 143.71C131.357 143.726 131.365 143.742 131.369 143.755C131.288 143.693 131.206 143.632 131.116 143.567C131.006 143.485 130.883 143.399 130.749 143.31C130.614 143.22 130.459 143.118 130.279 143.003L126.992 140.884L125.755 141.786L131.896 145.649L132.917 144.906L131.132 137.867L129.903 138.765V138.761Z" fill="#23262D"/>
<path d="M136.45 140.353L135.392 139.218L137.348 137.393L136.511 136.49L134.551 138.32L133.587 137.283L135.882 135.143L135.016 134.212L131.685 137.319L136.282 142.248L139.663 139.096L138.793 138.165L136.45 140.353Z" fill="#23262D"/>
<path d="M143.566 134.665L144.652 133.391L141.647 132.856C141.659 132.803 141.68 132.75 141.688 132.693C141.761 132.313 141.733 131.938 141.61 131.574C141.484 131.211 141.267 130.896 140.957 130.639C140.643 130.374 140.304 130.215 139.932 130.153C139.556 130.1 139.189 130.137 138.83 130.272C138.462 130.415 138.148 130.639 137.878 130.958L135.955 133.24L141.108 137.585L142.006 136.519L140.161 134.963L140.847 134.147L143.57 134.665H143.566ZM140.438 132.611C140.414 132.767 140.353 132.909 140.238 133.04L139.258 134.2L137.805 132.979L138.67 131.958C138.809 131.799 138.96 131.68 139.124 131.611C139.287 131.538 139.45 131.521 139.61 131.546C139.773 131.57 139.932 131.648 140.075 131.77C140.214 131.885 140.312 132.019 140.377 132.166C140.443 132.313 140.463 132.464 140.438 132.616V132.611Z" fill="#23262D"/>
<path d="M146.6 126.768C146.367 126.617 146.131 126.527 145.886 126.495C145.641 126.462 145.396 126.487 145.146 126.568C144.897 126.646 144.648 126.772 144.395 126.944C144.142 127.115 143.893 127.332 143.64 127.585C143.505 127.72 143.374 127.838 143.248 127.936C143.121 128.038 142.999 128.116 142.884 128.169C142.766 128.222 142.656 128.251 142.55 128.247C142.443 128.242 142.341 128.214 142.243 128.149C142.125 128.071 142.047 127.969 142.006 127.838C141.966 127.708 141.966 127.565 142.006 127.405C142.047 127.246 142.125 127.079 142.239 126.903C142.345 126.744 142.472 126.601 142.627 126.483C142.778 126.364 142.95 126.27 143.138 126.209C143.325 126.144 143.534 126.107 143.758 126.091L143.521 124.841C143.227 124.833 142.946 124.874 142.672 124.968C142.398 125.062 142.141 125.213 141.896 125.421C141.651 125.629 141.418 125.907 141.19 126.25C141.006 126.527 140.871 126.821 140.79 127.124C140.704 127.426 140.675 127.72 140.7 128.01C140.724 128.3 140.806 128.565 140.941 128.806C141.076 129.047 141.267 129.251 141.508 129.41C141.745 129.565 141.978 129.667 142.215 129.721C142.452 129.77 142.692 129.77 142.937 129.721C143.182 129.667 143.432 129.561 143.677 129.402C143.926 129.243 144.179 129.035 144.448 128.781C144.563 128.655 144.673 128.545 144.787 128.451C144.901 128.357 145.012 128.275 145.118 128.21C145.228 128.144 145.334 128.095 145.436 128.063C145.538 128.03 145.636 128.018 145.734 128.03C145.832 128.042 145.922 128.075 146.008 128.128C146.126 128.206 146.204 128.308 146.237 128.438C146.269 128.569 146.269 128.716 146.229 128.879C146.188 129.043 146.118 129.206 146.008 129.373C145.808 129.68 145.555 129.921 145.253 130.092C144.95 130.268 144.53 130.366 143.995 130.386L144.358 131.709C144.71 131.689 145.044 131.619 145.355 131.505C145.669 131.391 145.963 131.219 146.237 130.99C146.51 130.762 146.763 130.472 146.992 130.121C147.274 129.692 147.449 129.271 147.519 128.855C147.588 128.438 147.547 128.055 147.4 127.695C147.253 127.336 146.988 127.034 146.608 126.781L146.6 126.768Z" fill="#23262D"/>
<path d="M149.209 123.584L145.428 121.632L145.943 120.627L144.84 120.06L143.146 123.343L144.248 123.914L144.762 122.914L148.548 124.866L148.029 125.866L149.132 126.438L150.83 123.151L149.728 122.583L149.209 123.584Z" fill="#23262D"/>
<path d="M148.413 114.723L147.201 114.253L145.229 119.312L146.441 119.786L147.152 117.953L152.223 119.929L152.746 118.586L147.678 116.609L148.413 114.723Z" fill="#23262D"/>
<path d="M151.933 111.036L148.923 107.716L148.523 109.276L150.536 111.415L147.702 112.473L147.29 114.086L151.59 112.449L154.481 113.188L154.84 111.783L151.933 111.036Z" fill="#23262D"/>
<path d="M37.5949 112.461C37.5173 112.15 37.3989 111.873 37.2274 111.636C37.0559 111.403 36.8517 111.211 36.6149 111.064C36.374 110.913 36.1127 110.815 35.8228 110.774C35.5329 110.729 35.2348 110.742 34.9204 110.815C34.61 110.893 34.3324 111.011 34.0996 111.183C33.8628 111.354 33.6709 111.558 33.5239 111.799C33.3769 112.036 33.283 112.302 33.234 112.587C33.1891 112.877 33.2013 113.179 33.2789 113.494C33.3524 113.804 33.4749 114.074 33.6464 114.315C33.8097 114.547 34.018 114.739 34.2589 114.886C34.4957 115.037 34.7611 115.127 35.051 115.176C35.3409 115.217 35.639 115.201 35.9493 115.127C36.2597 115.054 36.5373 114.935 36.7742 114.764C37.0069 114.592 37.1988 114.392 37.3499 114.151C37.4969 113.914 37.5908 113.649 37.6398 113.363C37.6806 113.073 37.6684 112.771 37.5949 112.461ZM36.6598 113.155C36.6312 113.306 36.5782 113.449 36.4883 113.571C36.4067 113.698 36.2964 113.808 36.1617 113.902C36.0269 113.988 35.8718 114.057 35.7003 114.098C35.5247 114.139 35.3614 114.147 35.2021 114.131C35.0429 114.106 34.8959 114.061 34.7611 113.984C34.6264 113.91 34.512 113.808 34.4222 113.69C34.3324 113.567 34.2671 113.424 34.2262 113.261C34.1895 113.102 34.1854 112.947 34.2099 112.796C34.2385 112.645 34.2916 112.502 34.3732 112.375C34.4549 112.248 34.5651 112.138 34.704 112.048C34.8387 111.959 34.9939 111.893 35.1654 111.852C35.3409 111.812 35.5084 111.803 35.6635 111.82C35.8228 111.836 35.9698 111.885 36.1045 111.963C36.2433 112.04 36.3536 112.142 36.4434 112.261C36.5332 112.383 36.6027 112.526 36.6394 112.689C36.6802 112.849 36.6843 113.004 36.6557 113.155H36.6598Z" fill="#23262D"/>
<path d="M36.5294 118.716L37.3583 118.455L36.8601 116.875L37.6768 116.622L38.2484 118.439L39.1222 118.165L38.5506 116.344L38.2403 115.356L34.1611 116.634L34.4715 117.626L36.0353 117.136L36.5294 118.716Z" fill="#23262D"/>
<path d="M37.3374 122.987L38.1377 122.648L38.7951 124.216L39.575 123.89L38.9176 122.322L39.6485 122.015L40.412 123.837L41.2287 123.494L40.0731 120.741L36.1328 122.399L37.3088 125.204L38.1254 124.861L37.3374 122.987Z" fill="#23262D"/>
<path d="M42.887 126.87L41.9438 127.348C41.7968 127.422 41.658 127.495 41.5314 127.56C41.4048 127.626 41.2905 127.691 41.1843 127.752C41.0782 127.814 40.9761 127.875 40.874 127.936C40.7719 127.997 40.6699 128.063 40.5678 128.128C40.5433 128.144 40.5188 128.161 40.4943 128.177L42.0255 125.155L41.6049 124.327L37.7871 126.258L38.2444 127.156L39.5184 126.511C39.6082 126.466 39.6899 126.421 39.7634 126.384C39.8369 126.344 39.9104 126.303 39.9839 126.262C40.0574 126.221 40.139 126.172 40.2289 126.115C40.3187 126.058 40.4208 125.992 40.5351 125.919C40.5514 125.911 40.5678 125.899 40.5841 125.886L39.0978 128.863L39.5225 129.704L43.3403 127.773L42.883 126.874L42.887 126.87Z" fill="#23262D"/>
<path d="M45.2466 130.982L42.9682 131.427C42.7967 131.46 42.6497 131.488 42.5313 131.513C42.4088 131.537 42.2944 131.566 42.1883 131.591C42.1842 131.591 42.176 131.591 42.1719 131.595C42.2128 131.55 42.2577 131.505 42.2985 131.456C42.3557 131.39 42.4129 131.321 42.4782 131.243C42.5394 131.166 42.6129 131.072 42.6946 130.966L44.136 129.132L43.5766 128.206L40.7959 131.88L41.2451 132.624L45.7978 131.893L45.2507 130.982H45.2466Z" fill="#23262D"/>
<path d="M44.2591 135.629L46.3415 134.192L46.7539 134.792L47.4726 134.294L46.0598 132.248L45.3411 132.742L45.7495 133.338L43.667 134.776L43.2587 134.179L42.54 134.678L43.9528 136.723L44.6715 136.229L44.2591 135.629Z" fill="#23262D"/>
<path d="M49.5297 137.274C49.4888 137.025 49.3827 136.793 49.2153 136.58L48.027 135.069L44.6543 137.707L45.2668 138.487L46.4468 137.556L46.7776 137.977L46.1161 139.569L46.8429 140.504L47.5534 138.732C47.5779 138.74 47.6024 138.757 47.6269 138.769C47.8596 138.867 48.1005 138.895 48.3455 138.867C48.5864 138.834 48.8192 138.732 49.0315 138.569C49.2316 138.41 49.3786 138.218 49.4602 137.989C49.546 137.764 49.5664 137.528 49.5215 137.278L49.5297 137.274ZM48.5497 137.56C48.5129 137.65 48.4517 137.732 48.3659 137.797C48.2802 137.866 48.1863 137.907 48.0965 137.924C47.9985 137.948 47.9127 137.936 47.827 137.907C47.7412 137.871 47.6677 137.817 47.5983 137.728L47.0797 137.062L47.9535 136.38L48.4149 136.972C48.4966 137.074 48.5497 137.172 48.566 137.274C48.5905 137.376 48.5783 137.47 48.5497 137.56Z" fill="#23262D"/>
<path d="M52.4655 140.476C52.3675 140.202 52.2083 139.945 51.9919 139.708C51.7755 139.471 51.5346 139.288 51.2732 139.165C51.0119 139.043 50.7424 138.973 50.4566 138.961C50.1708 138.949 49.8972 138.989 49.6236 139.083C49.3541 139.185 49.0969 139.345 48.86 139.561C48.6232 139.778 48.4395 140.014 48.317 140.276C48.1904 140.541 48.121 140.811 48.1047 141.096C48.0924 141.374 48.1332 141.656 48.2312 141.925C48.3333 142.199 48.4926 142.456 48.709 142.701C48.9254 142.934 49.1622 143.118 49.4235 143.24C49.6849 143.363 49.9584 143.436 50.2402 143.444C50.526 143.456 50.7996 143.416 51.0732 143.318C51.3467 143.211 51.5999 143.056 51.8367 142.84C52.0735 142.624 52.2573 142.387 52.3798 142.125C52.5064 141.864 52.5758 141.595 52.5921 141.309C52.6044 141.031 52.5635 140.749 52.4655 140.48V140.476ZM51.4366 141.656C51.3631 141.799 51.261 141.929 51.1303 142.048C50.9956 142.17 50.8567 142.26 50.7057 142.317C50.5546 142.379 50.4035 142.403 50.2524 142.403C50.0973 142.399 49.9544 142.366 49.8114 142.305C49.6726 142.24 49.546 142.15 49.4358 142.019C49.3215 141.897 49.2398 141.762 49.1949 141.615C49.1459 141.472 49.1255 141.321 49.1336 141.17C49.1418 141.019 49.1867 140.868 49.2602 140.725C49.3378 140.582 49.4439 140.451 49.5746 140.333C49.7094 140.21 49.8441 140.12 49.9952 140.059C50.1422 139.998 50.2933 139.973 50.4484 139.978C50.6036 139.978 50.7506 140.014 50.8894 140.076C51.0323 140.141 51.1548 140.231 51.2691 140.361C51.3794 140.484 51.4611 140.619 51.5101 140.766C51.555 140.909 51.5754 141.06 51.5591 141.211C51.5509 141.362 51.506 141.509 51.4325 141.656H51.4366Z" fill="#23262D"/>
<path d="M56.0023 143.885L55.2755 144.653C55.1612 144.775 55.055 144.886 54.957 144.992C54.859 145.098 54.7733 145.196 54.6916 145.29C54.614 145.384 54.5364 145.478 54.4629 145.567C54.3894 145.657 54.3159 145.755 54.2383 145.853C54.222 145.878 54.2016 145.902 54.1853 145.927L54.6018 142.566L53.928 141.929L50.9922 145.041L51.7272 145.731L52.7071 144.69C52.7766 144.616 52.8419 144.547 52.895 144.485C52.9521 144.424 53.0052 144.359 53.0624 144.294C53.1195 144.228 53.1808 144.155 53.242 144.069C53.3074 143.983 53.3809 143.889 53.4666 143.779C53.4789 143.763 53.4911 143.746 53.5034 143.73L53.1114 147.033L53.7974 147.679L56.7332 144.567L55.9982 143.877L56.0023 143.885Z" fill="#23262D"/>
<path d="M60.1421 147.364L57.9249 148.144L58.2148 145.821L57.488 145.241L54.8135 148.581L55.6015 149.21L56.4345 148.169C56.6795 147.858 56.8878 147.589 57.0511 147.352C57.0919 147.295 57.1287 147.238 57.1654 147.18L56.9694 148.977L57.2838 149.23L59.0437 148.642C58.9784 148.707 58.9089 148.769 58.8477 148.838C58.6517 149.055 58.4353 149.308 58.2066 149.594L57.3737 150.635L58.1617 151.264L60.8362 147.924L60.138 147.364H60.1421Z" fill="#23262D"/>
<path d="M62.4738 152.117L62.9515 151.423L61.551 150.463L62.0001 149.806L63.6253 150.925L64.1275 150.194L61.6694 148.507L59.248 152.031L61.7592 153.754L62.2574 153.023L60.5833 151.872L61.0732 151.157L62.4738 152.117Z" fill="#23262D"/>
<path d="M67.3411 152.133L66.8062 153.044C66.7205 153.187 66.6429 153.321 66.5735 153.444C66.5041 153.566 66.4387 153.685 66.3816 153.791C66.3244 153.901 66.2713 154.007 66.2182 154.114C66.1652 154.22 66.1162 154.33 66.0631 154.44C66.0508 154.465 66.0386 154.497 66.0263 154.522L65.6833 151.153L64.883 150.684L62.7148 154.371L63.5846 154.881L64.3073 153.648C64.3604 153.558 64.4053 153.481 64.4461 153.407C64.487 153.334 64.5278 153.26 64.5686 153.183C64.6095 153.105 64.6503 153.019 64.6952 152.925C64.7401 152.831 64.7891 152.717 64.8463 152.595C64.8545 152.578 64.8626 152.558 64.8708 152.542L65.226 155.849L66.0386 156.327L68.2068 152.64L67.3371 152.129L67.3411 152.133Z" fill="#23262D"/>
<path d="M71.6448 155.392L72.0531 154.567L68.8151 152.966L68.4068 153.787L69.546 154.351L68.0557 157.364L68.9866 157.825L70.477 154.812L71.6448 155.392Z" fill="#23262D"/>
<path d="M73.4619 155.167L70.2402 158.45L71.1835 158.85L71.7837 158.213L73.2251 158.822L73.1883 159.695L74.1601 160.104L74.2704 155.51L73.4578 155.167H73.4619ZM73.3353 156.776C73.3271 156.886 73.319 156.992 73.3108 157.09C73.3027 157.192 73.2986 157.29 73.2945 157.384L73.2659 157.989L72.3594 157.609L72.7718 157.168C72.8412 157.09 72.9147 157.013 72.9842 156.935C73.0577 156.862 73.1271 156.788 73.1883 156.711C73.2496 156.641 73.3026 156.572 73.3639 156.506C73.3557 156.592 73.3476 156.686 73.3353 156.776Z" fill="#23262D"/>
<path d="M77.2637 156.653L76.2837 156.31L74.875 160.353L77.6557 161.321L77.9578 160.455L76.1571 159.826L77.2637 156.653Z" fill="#23262D"/>
<path d="M83.6291 158.523L82.7716 158.319L80.1094 162.072L81.1098 162.313L81.5997 161.594L83.1187 161.966L83.2249 162.831L84.2416 163.08L83.6291 158.528V158.523ZM82.0734 160.9L82.4082 160.402C82.4613 160.312 82.5226 160.222 82.5838 160.14C82.6369 160.055 82.694 159.969 82.7471 159.883C82.792 159.806 82.837 159.728 82.89 159.65C82.8941 159.74 82.8982 159.83 82.9023 159.924C82.9105 160.03 82.9145 160.136 82.9268 160.238C82.935 160.341 82.9431 160.434 82.9595 160.528L83.0289 161.133L82.0775 160.9H82.0734Z" fill="#23262D"/>
<path d="M88.3497 160.524C88.3211 160.688 88.2966 160.843 88.2762 160.982C88.2558 161.12 88.2353 161.255 88.2231 161.374C88.2108 161.492 88.1986 161.615 88.1863 161.733C88.1782 161.851 88.17 161.97 88.1618 162.092C88.1618 162.121 88.1618 162.154 88.1618 162.182L86.6388 159.161L85.7242 159.005L85.0137 163.223L86.01 163.391L86.2468 161.982C86.2631 161.88 86.2795 161.79 86.2917 161.708C86.304 161.627 86.3162 161.541 86.3244 161.455C86.3326 161.37 86.3448 161.276 86.353 161.169C86.3611 161.063 86.3693 160.941 86.3775 160.806C86.3775 160.79 86.3775 160.765 86.3775 160.745L87.8923 163.709L88.8192 163.864L89.5297 159.646L88.5375 159.479L88.3619 160.52L88.3497 160.524Z" fill="#23262D"/>
<path d="M94.1681 161.382C94.0905 161.116 93.968 160.88 93.7924 160.667C93.621 160.463 93.4127 160.292 93.1595 160.169C92.9064 160.043 92.6287 159.965 92.3184 159.936L90.534 159.777L90.1543 164.036L91.9346 164.195C92.2449 164.224 92.5389 164.199 92.8043 164.118C93.0738 164.04 93.3106 163.913 93.5189 163.742C93.723 163.566 93.8904 163.358 94.0129 163.105C94.1354 162.852 94.213 162.57 94.2416 162.256C94.2702 161.941 94.2457 161.651 94.1681 161.382ZM93.1963 162.162C93.18 162.345 93.1351 162.509 93.0738 162.656C93.0044 162.799 92.9186 162.921 92.8166 163.019C92.7104 163.117 92.5879 163.191 92.4491 163.236C92.3062 163.281 92.1551 163.301 91.9836 163.281L91.2649 163.215L91.4854 160.782L92.2041 160.847C92.3715 160.859 92.5267 160.908 92.6532 160.973C92.7798 161.043 92.8901 161.137 92.9758 161.251C93.0616 161.361 93.1269 161.5 93.1636 161.655C93.2045 161.806 93.2126 161.974 93.2004 162.158L93.1963 162.162Z" fill="#23262D"/>
<path d="M99.9541 163.338C99.8561 163.403 99.7459 163.456 99.6316 163.493C99.5131 163.53 99.3906 163.55 99.26 163.554C99.0681 163.554 98.8925 163.534 98.7373 163.476C98.5822 163.419 98.4433 163.342 98.3331 163.232C98.2228 163.125 98.133 162.995 98.0718 162.844C98.0064 162.693 97.9738 162.521 97.9738 162.333C97.9738 162.141 97.9983 161.97 98.0554 161.811C98.1126 161.655 98.1983 161.521 98.3045 161.41C98.4107 161.3 98.5372 161.214 98.6802 161.153C98.8231 161.092 98.9782 161.059 99.1416 161.055C99.2722 161.055 99.3947 161.071 99.5091 161.104C99.6234 161.141 99.7295 161.19 99.8275 161.255C99.9255 161.321 100.015 161.398 100.101 161.488L100.726 160.749C100.603 160.61 100.452 160.488 100.281 160.385C100.109 160.283 99.9255 160.21 99.7296 160.161C99.5336 160.112 99.3335 160.087 99.1293 160.092C98.8027 160.096 98.5046 160.157 98.231 160.271C97.9574 160.385 97.7206 160.545 97.5246 160.745C97.3245 160.945 97.1735 161.182 97.0632 161.451C96.953 161.721 96.8999 162.015 96.908 162.333C96.9121 162.66 96.9734 162.958 97.0836 163.227C97.1939 163.497 97.3531 163.73 97.5573 163.922C97.7614 164.118 97.9983 164.265 98.2718 164.367C98.5454 164.469 98.8435 164.518 99.162 164.514C99.3702 164.514 99.5744 164.481 99.7785 164.428C99.9827 164.375 100.171 164.301 100.338 164.207C100.505 164.113 100.64 164.011 100.738 163.897L100.224 163.109C100.146 163.191 100.06 163.264 99.9623 163.329L99.9541 163.338Z" fill="#23262D"/>
<path d="M102.628 163.391L102.379 160.042L101.346 160.116L101.66 164.383L104.596 164.167L104.531 163.252L102.628 163.391Z" fill="#23262D"/>
<path d="M107.12 162.97L106.793 160.459L107.516 160.365L107.402 159.499L104.936 159.822L105.05 160.688L105.764 160.594L106.091 163.105L105.377 163.199L105.491 164.064L107.957 163.742L107.843 162.872L107.12 162.97Z" fill="#23262D"/>
<path d="M111.656 158.699L110.835 160.9L109.239 159.189L108.328 159.373L109.177 163.566L110.166 163.366L109.9 162.06C109.823 161.672 109.745 161.341 109.667 161.063C109.647 160.99 109.623 160.924 109.602 160.855L110.864 162.166L111.26 162.084L111.934 160.357C111.942 160.447 111.946 160.541 111.958 160.63C111.999 160.92 112.056 161.247 112.13 161.606L112.395 162.913L113.383 162.713L112.534 158.519L111.66 158.695L111.656 158.699Z" fill="#23262D"/>
<path d="M115.454 157.711L114.605 157.952L114.147 162.529L115.136 162.251L115.205 161.382L116.712 160.953L117.23 161.659L118.239 161.374L115.454 157.715V157.711ZM115.274 160.545L115.319 159.944C115.323 159.838 115.328 159.732 115.336 159.634C115.344 159.532 115.348 159.434 115.352 159.332C115.356 159.242 115.356 159.148 115.36 159.058C115.409 159.136 115.458 159.209 115.507 159.287C115.568 159.377 115.626 159.467 115.687 159.552C115.748 159.634 115.801 159.716 115.854 159.789L116.209 160.275L115.266 160.545H115.274Z" fill="#23262D"/>
<path d="M120.337 156.09L116.928 157.286L117.234 158.152L118.43 157.731L119.545 160.9L120.525 160.557L119.41 157.388L120.639 156.956L120.337 156.09Z" fill="#23262D"/>
<path d="M123.229 158.556L122.89 157.76L124.454 157.094L124.123 156.319L122.559 156.984L122.249 156.253L124.066 155.477L123.719 154.665L120.975 155.829L122.645 159.769L125.446 158.577L125.099 157.76L123.229 158.556Z" fill="#23262D"/>
<path d="M130.255 154.873C130.198 154.975 130.125 155.073 130.039 155.163C129.953 155.253 129.851 155.326 129.737 155.388C129.57 155.477 129.402 155.539 129.239 155.563C129.075 155.588 128.916 155.58 128.769 155.535C128.618 155.49 128.483 155.416 128.353 155.31C128.226 155.204 128.12 155.069 128.03 154.906C127.94 154.738 127.883 154.571 127.863 154.408C127.842 154.244 127.855 154.085 127.899 153.938C127.94 153.791 128.014 153.656 128.112 153.538C128.21 153.415 128.332 153.317 128.475 153.24C128.59 153.179 128.708 153.134 128.822 153.113C128.937 153.093 129.055 153.085 129.173 153.101C129.292 153.113 129.406 153.142 129.525 153.179L129.733 152.235C129.557 152.17 129.369 152.129 129.173 152.121C128.973 152.109 128.777 152.129 128.581 152.174C128.385 152.219 128.198 152.293 128.018 152.391C127.732 152.546 127.495 152.738 127.307 152.966C127.12 153.195 126.985 153.444 126.899 153.714C126.817 153.983 126.789 154.265 126.817 154.555C126.846 154.845 126.936 155.13 127.087 155.408C127.242 155.694 127.434 155.931 127.659 156.119C127.883 156.306 128.128 156.437 128.402 156.515C128.671 156.592 128.949 156.613 129.239 156.58C129.529 156.543 129.815 156.449 130.096 156.298C130.28 156.2 130.447 156.078 130.607 155.935C130.762 155.792 130.892 155.641 130.999 155.482C131.105 155.322 131.174 155.167 131.211 155.02L130.39 154.563C130.362 154.673 130.317 154.779 130.26 154.881L130.255 154.873Z" fill="#23262D"/>
<path d="M132.203 149.957L133.11 151.37L131.75 152.243L130.844 150.827L129.97 151.39L132.281 154.987L133.155 154.428L132.252 153.023L133.612 152.154L134.51 153.558L135.384 152.999L133.077 149.397L132.203 149.957Z" fill="#23262D"/>
<path d="M135.531 147.601L134.824 148.128L136.025 152.566L136.849 151.954L136.6 151.117L137.854 150.177L138.585 150.655L139.426 150.022L135.522 147.605L135.531 147.601ZM136.368 150.312L136.2 149.736C136.168 149.634 136.135 149.536 136.11 149.438C136.082 149.336 136.049 149.242 136.021 149.144C135.992 149.063 135.959 148.977 135.935 148.887C136.004 148.94 136.078 148.993 136.151 149.046C136.237 149.112 136.327 149.169 136.413 149.23C136.494 149.291 136.576 149.344 136.654 149.393L137.16 149.72L136.372 150.312H136.368Z" fill="#23262D"/>
<path d="M139.394 144.424L140.088 145.224C140.198 145.351 140.301 145.465 140.394 145.572C140.488 145.678 140.578 145.776 140.664 145.866C140.75 145.955 140.831 146.041 140.917 146.123C141.003 146.204 141.089 146.29 141.178 146.372C141.199 146.392 141.223 146.413 141.248 146.433L137.945 145.682L137.242 146.29L140.043 149.524L140.807 148.863L139.872 147.781C139.806 147.703 139.745 147.634 139.688 147.572C139.631 147.511 139.574 147.45 139.517 147.389C139.455 147.327 139.39 147.258 139.312 147.184C139.235 147.111 139.145 147.029 139.047 146.935C139.035 146.923 139.018 146.907 139.002 146.894L142.252 147.617L142.963 147.001L140.162 143.767L139.398 144.428L139.394 144.424Z" fill="#23262D"/>
<path d="M145.441 141.962C145.417 141.938 145.376 141.897 145.323 141.848C145.27 141.799 145.213 141.746 145.156 141.697C145.098 141.644 145.049 141.607 145.013 141.582L143.6 143.011L144.18 143.583L144.911 142.844C144.972 142.913 145.021 142.987 145.049 143.073C145.082 143.175 145.094 143.281 145.086 143.387C145.078 143.493 145.049 143.599 145 143.71C144.951 143.82 144.882 143.918 144.792 144.008C144.666 144.134 144.523 144.232 144.367 144.294C144.208 144.359 144.049 144.392 143.886 144.387C143.722 144.383 143.563 144.355 143.404 144.289C143.245 144.224 143.102 144.126 142.971 144C142.84 143.869 142.742 143.73 142.673 143.575C142.603 143.42 142.567 143.265 142.563 143.101C142.559 142.938 142.587 142.783 142.644 142.632C142.701 142.481 142.795 142.342 142.922 142.215C143.02 142.117 143.126 142.04 143.236 141.978C143.351 141.917 143.469 141.872 143.592 141.844C143.714 141.815 143.845 141.795 143.988 141.791L143.955 140.876C143.775 140.864 143.583 140.876 143.387 140.925C143.191 140.974 143 141.047 142.808 141.154C142.616 141.26 142.436 141.399 142.273 141.566C142.036 141.803 141.86 142.06 141.738 142.342C141.615 142.619 141.554 142.905 141.55 143.191C141.546 143.481 141.599 143.759 141.709 144.024C141.82 144.289 141.987 144.539 142.216 144.759C142.44 144.984 142.689 145.151 142.955 145.265C143.22 145.38 143.498 145.437 143.779 145.437C144.061 145.437 144.339 145.376 144.612 145.257C144.886 145.139 145.143 144.955 145.384 144.714C145.584 144.51 145.739 144.289 145.841 144.053C145.948 143.812 146.005 143.571 146.009 143.326C146.013 143.081 145.972 142.844 145.878 142.611C145.784 142.379 145.641 142.166 145.441 141.97V141.962Z" fill="#23262D"/>
<path d="M147.409 141.129L146.752 140.561L147.863 139.275L147.222 138.724L146.115 140.01L145.511 139.492L146.801 137.997L146.131 137.417L144.184 139.675L147.422 142.472L149.41 140.165L148.74 139.59L147.409 141.129Z" fill="#23262D"/>
<path d="M152.101 134.339C151.946 134.228 151.787 134.159 151.627 134.134C151.468 134.11 151.309 134.118 151.146 134.167C150.982 134.212 150.819 134.29 150.656 134.396C150.492 134.502 150.325 134.633 150.157 134.788C150.088 134.857 150.015 134.923 149.941 134.98C149.868 135.037 149.794 135.082 149.725 135.119C149.655 135.155 149.586 135.172 149.52 135.176C149.455 135.18 149.398 135.163 149.341 135.123C149.28 135.078 149.239 135.021 149.222 134.947C149.206 134.874 149.21 134.796 149.239 134.706C149.263 134.616 149.312 134.522 149.382 134.424C149.451 134.326 149.533 134.245 149.627 134.175C149.721 134.106 149.827 134.049 149.941 134.008C150.055 133.967 150.182 133.943 150.317 133.934L150.186 133.052C150.002 133.044 149.823 133.069 149.647 133.122C149.471 133.175 149.304 133.269 149.141 133.4C148.977 133.53 148.81 133.71 148.651 133.938C148.528 134.11 148.434 134.294 148.373 134.49C148.312 134.686 148.283 134.878 148.291 135.065C148.3 135.253 148.344 135.429 148.426 135.596C148.508 135.76 148.626 135.898 148.781 136.009C148.928 136.115 149.075 136.184 149.226 136.221C149.378 136.258 149.533 136.262 149.692 136.233C149.851 136.205 150.01 136.139 150.178 136.041C150.341 135.943 150.517 135.813 150.696 135.653C150.758 135.592 150.823 135.535 150.888 135.482C150.954 135.429 151.019 135.38 151.088 135.339C151.158 135.298 151.219 135.266 151.28 135.245C151.342 135.225 151.399 135.212 151.456 135.217C151.513 135.217 151.566 135.241 151.615 135.274C151.68 135.323 151.721 135.38 151.738 135.453C151.754 135.527 151.746 135.604 151.721 135.694C151.693 135.784 151.648 135.874 151.582 135.964C151.456 136.143 151.293 136.29 151.097 136.401C150.901 136.515 150.631 136.576 150.292 136.58L150.509 137.507C150.733 137.495 150.945 137.458 151.154 137.389C151.362 137.319 151.554 137.213 151.742 137.07C151.93 136.923 152.101 136.74 152.264 136.507C152.452 136.241 152.575 135.976 152.636 135.711C152.693 135.445 152.681 135.192 152.595 134.955C152.509 134.718 152.346 134.514 152.105 134.343L152.101 134.339Z" fill="#23262D"/>
<path d="M152.603 129.716L151.823 129.23L149.916 132.297L150.696 132.783L151.366 131.701L154.224 133.477L154.771 132.595L151.917 130.819L152.603 129.716Z" fill="#23262D"/>
<path d="M156.192 126.658L153.864 125.425L153.391 126.323L155.669 127.528C155.804 127.601 155.914 127.699 155.987 127.822C156.065 127.944 156.106 128.075 156.11 128.214C156.114 128.353 156.085 128.491 156.012 128.63C155.943 128.761 155.849 128.859 155.73 128.932C155.612 129.002 155.481 129.039 155.338 129.043C155.195 129.043 155.056 129.01 154.922 128.941L152.643 127.736L152.153 128.663L154.481 129.896C154.771 130.047 155.061 130.112 155.359 130.092C155.657 130.072 155.93 129.974 156.188 129.794C156.445 129.618 156.657 129.373 156.825 129.059C156.988 128.749 157.07 128.438 157.074 128.124C157.074 127.814 157 127.528 156.853 127.271C156.702 127.013 156.486 126.809 156.196 126.658H156.192Z" fill="#23262D"/>
<path d="M158.997 122.963C158.899 122.714 158.748 122.489 158.552 122.293C158.352 122.093 158.107 121.93 157.821 121.803C157.531 121.681 157.249 121.611 156.967 121.603C156.69 121.591 156.424 121.636 156.171 121.73C155.918 121.824 155.694 121.971 155.498 122.171C155.297 122.367 155.13 122.612 155.008 122.897L154.293 124.539L158.209 126.254L158.927 124.612C159.05 124.322 159.119 124.041 159.127 123.759C159.136 123.481 159.091 123.216 158.993 122.963H158.997ZM158.078 124.273L157.788 124.935L155.551 123.955L155.841 123.294C155.91 123.138 155.996 123.008 156.106 122.91C156.212 122.808 156.335 122.742 156.469 122.693C156.608 122.648 156.755 122.628 156.914 122.644C157.074 122.652 157.237 122.697 157.404 122.771C157.576 122.844 157.715 122.934 157.829 123.04C157.947 123.151 158.033 123.269 158.094 123.404C158.156 123.53 158.18 123.669 158.18 123.816C158.18 123.963 158.148 124.118 158.078 124.273Z" fill="#23262D"/>
<path d="M159.846 119.917L157.47 119.051L157.719 118.369L156.898 118.071L156.049 120.407L156.87 120.705L157.115 120.027L159.491 120.893L159.246 121.57L160.067 121.868L160.916 119.529L160.095 119.231L159.846 119.917Z" fill="#23262D"/>
<path d="M160.74 117.16L159.907 116.911L160.393 115.286L159.585 115.045L159.099 116.671L158.339 116.446L158.903 114.555L158.054 114.302L157.2 117.16L161.3 118.381L162.169 115.462L161.32 115.213L160.74 117.16Z" fill="#23262D"/>
<path d="M162.868 112.126C162.819 111.856 162.713 111.628 162.541 111.444C162.374 111.256 162.145 111.13 161.855 111.064C161.667 111.019 161.496 111.019 161.341 111.056C161.185 111.093 161.038 111.162 160.908 111.268C160.773 111.375 160.651 111.505 160.54 111.669C160.43 111.832 160.324 112.012 160.23 112.22C160.193 112.31 160.152 112.399 160.103 112.481C160.058 112.563 160.005 112.632 159.956 112.689C159.903 112.747 159.846 112.791 159.789 112.82C159.732 112.849 159.671 112.857 159.601 112.84C159.528 112.824 159.466 112.783 159.426 112.726C159.385 112.669 159.356 112.591 159.348 112.497C159.34 112.404 159.348 112.301 159.372 112.179C159.401 112.065 159.442 111.954 159.503 111.856C159.564 111.754 159.638 111.664 159.728 111.583C159.818 111.501 159.924 111.432 160.046 111.37L159.589 110.607C159.413 110.672 159.258 110.762 159.119 110.876C158.98 110.995 158.858 111.142 158.756 111.326C158.654 111.509 158.568 111.738 158.507 112.012C158.458 112.216 158.446 112.424 158.462 112.628C158.478 112.832 158.527 113.02 158.609 113.192C158.686 113.363 158.797 113.51 158.936 113.633C159.07 113.755 159.234 113.837 159.421 113.878C159.597 113.918 159.76 113.927 159.916 113.902C160.071 113.878 160.214 113.825 160.348 113.735C160.483 113.645 160.61 113.526 160.724 113.371C160.838 113.22 160.949 113.032 161.055 112.816C161.091 112.738 161.128 112.661 161.169 112.583C161.21 112.51 161.255 112.44 161.3 112.375C161.345 112.31 161.394 112.257 161.439 112.212C161.488 112.167 161.537 112.138 161.594 112.118C161.651 112.097 161.704 112.097 161.765 112.11C161.843 112.13 161.904 112.167 161.949 112.228C161.99 112.289 162.014 112.363 162.022 112.457C162.031 112.551 162.022 112.653 161.998 112.759C161.949 112.971 161.855 113.171 161.716 113.351C161.577 113.531 161.353 113.69 161.042 113.825L161.598 114.6C161.798 114.506 161.982 114.388 162.145 114.245C162.308 114.102 162.451 113.931 162.566 113.727C162.684 113.522 162.77 113.281 162.835 113.008C162.909 112.689 162.921 112.395 162.872 112.13L162.868 112.126Z" fill="#23262D"/>
<path d="M75.4379 88.627L75.4297 72.2819C82.3507 72.5064 87.9039 74.1642 91.5625 77.1123C94.6331 79.5908 96.3317 82.9595 96.3521 86.6221C96.2255 86.5976 96.0949 86.5813 95.9683 86.5609C89.5658 85.6707 82.6692 86.369 75.4419 88.627H75.4379Z" fill="#008867"/>
<path d="M76.6675 112.179C75.8509 109.48 75.4385 106.695 75.4385 103.874V95.1316C86.5122 95.6052 91.2365 100.852 96.2221 106.397C100.073 110.68 104.021 115.066 110.86 116.818C104.605 116.593 101.036 115.078 97.5573 113.596C92.5635 111.473 87.8351 109.46 76.6675 112.175V112.179Z" fill="#008867"/>
<path d="M112.523 120.145C113.49 120.145 114.515 120.117 115.601 120.06C111.432 126.27 105.14 130.562 97.9985 131.999C89.0808 130.198 81.5023 123.894 77.7988 115.295C87.619 112.959 91.4654 114.592 96.2591 116.634C100.175 118.3 104.511 120.145 112.518 120.145H112.523Z" fill="#008867"/>
<path d="M118.916 92.2938C118.916 94.4375 118.222 96.4954 116.936 98.1777C115.613 96.4709 114.049 94.8703 112.281 93.4371C108.953 90.7381 104.988 88.7332 100.644 87.5287C102.375 84.4377 105.597 82.5349 109.157 82.5349C114.535 82.5349 118.912 86.9121 118.912 92.2897L118.916 92.2938Z" fill="#008867"/>
<path d="M117.103 104.801C118.5 107.912 119.051 111.109 118.696 114.065C118.667 114.143 118.634 114.217 118.61 114.294C108.079 114.645 103.71 109.786 98.6756 104.192C93.7513 98.7248 88.2144 92.5673 76.124 91.8691C82.9961 89.6805 89.5088 88.9945 95.5112 89.8315C101.097 90.6074 106.177 92.7388 110.203 96.0013C113.228 98.4512 115.613 101.497 117.099 104.805L117.103 104.801Z" fill="#008867"/>
<path d="M104.445 77.1123C108.1 74.1642 113.653 72.5064 120.578 72.2819L120.57 85.9525C118.337 81.955 114.061 79.2438 109.166 79.2438C105.842 79.2438 102.739 80.481 100.387 82.6287C101.163 80.5463 102.539 78.6517 104.45 77.1164L104.445 77.1123Z" fill="#008867"/>
<path d="M97.994 50.5714C71.8001 50.5714 50.5674 71.8042 50.5674 98.0021C50.5674 124.2 71.8001 145.429 97.994 145.429C124.188 145.429 145.425 124.196 145.425 98.0021C145.425 71.8082 124.192 50.5714 97.994 50.5714ZM125.433 72.2533H123.869L123.861 103.878C123.861 107.287 123.322 110.652 122.256 113.886C122.138 114.241 121.856 115.029 121.844 115.062C121.656 115.56 121.46 116.054 121.248 116.544C121.244 116.552 121.24 116.568 121.236 116.577C121.236 116.581 121.232 116.581 121.232 116.585C120.889 117.389 120.509 118.177 120.109 118.933C120.101 118.945 120.096 118.961 120.084 118.969C119.966 119.198 119.843 119.427 119.713 119.651C115.086 127.887 107.283 133.591 98.3002 135.298C98.1981 135.315 98.1001 135.327 97.994 135.327C97.8878 135.327 97.7898 135.319 97.6877 135.298C86.9244 133.261 77.8637 125.384 74.0336 114.743C74.0336 114.743 74.0296 114.719 74.0255 114.711C72.7719 111.219 72.135 107.573 72.135 103.874V72.2492H70.5547C69.6483 72.2492 68.9051 71.5102 68.9051 70.5996C68.9051 69.689 69.6483 68.95 70.5547 68.95H73.7805C87.6308 68.95 95.001 73.9723 97.9981 79.8603C99.5007 76.9204 102.094 74.1888 106.042 72.2043C109.99 70.2076 115.291 68.9541 122.216 68.9541H125.437C126.348 68.9541 127.091 69.6931 127.091 70.6037C127.091 71.5142 126.348 72.2533 125.437 72.2533H125.433Z" fill="#008867"/>
<path d="M165.722 69.3909C162.023 60.6365 156.723 52.7804 149.973 46.0267C143.224 39.2772 135.364 33.9772 126.609 30.2778C117.544 26.4436 107.92 24.5 97.9939 24.5C88.0676 24.5 78.4516 26.4436 69.3868 30.2737C60.6324 33.9731 52.7722 39.2731 46.0227 46.0227C39.2731 52.7722 33.9731 60.6324 30.2737 69.3868C26.4436 78.4516 24.5 88.0798 24.5 98.002C24.5 107.924 26.4436 117.548 30.2737 126.609C33.9731 135.368 39.2731 143.224 46.0227 149.973C52.7681 156.723 60.6324 162.023 69.3868 165.722C78.4516 169.556 88.0717 171.504 97.9939 171.504C107.916 171.504 117.54 169.556 126.605 165.722C135.359 162.023 143.216 156.723 149.969 149.973C156.719 143.228 162.019 135.368 165.718 126.609C169.552 117.548 171.492 107.924 171.492 98.002C171.492 88.0798 169.548 78.4557 165.718 69.3909H165.722ZM97.998 168.54C59.044 168.54 27.4603 136.956 27.4603 98.002C27.4603 59.0481 59.044 27.4644 97.9939 27.4644C136.944 27.4644 168.536 59.044 168.536 98.002C168.536 136.96 136.952 168.54 97.9939 168.54H97.998Z" fill="#008867"/>
<path d="M156.963 97.3528C158.19 97.3528 159.185 96.3583 159.185 95.1316C159.185 93.9048 158.19 92.9103 156.963 92.9103C155.737 92.9103 154.742 93.9048 154.742 95.1316C154.742 96.3583 155.737 97.3528 156.963 97.3528Z" fill="#23262D"/>
<path d="M38.9957 97.3528C40.2225 97.3528 41.217 96.3583 41.217 95.1316C41.217 93.9048 40.2225 92.9103 38.9957 92.9103C37.7689 92.9103 36.7744 93.9048 36.7744 95.1316C36.7744 96.3583 37.7689 97.3528 38.9957 97.3528Z" fill="#23262D"/>
</g>
</g>
<defs>
<clipPath id="clip0_765_2504">
<rect x="8" y="8" width="180" height="180" rx="90" fill="white"/>
</clipPath>
<clipPath id="clip1_765_2504">
<rect width="146.996" height="147" fill="white" transform="translate(24.5 24.5)"/>
</clipPath>
</defs>
</svg>
